<!DOCTYPE svg PUBLIC "-//W3C//DTD SVG 1.1//EN" "http://www.w3.org/Graphics/SVG/1.1/DTD/svg11.dtd">
<!-- Uploaded to: SVG Repo, www.svgrepo.com, Transformed by: SVG Repo Mixer Tools -->
<svg width="64px" height="64px" viewBox="0 0 1024 1024" class="icon" version="1.1" xmlns="http://www.w3.org/2000/svg" fill="#000000">
<g id="SVGRepo_bgCarrier" stroke-width="0"/>
<g id="SVGRepo_tracerCarrier" stroke-linecap="round" stroke-linejoin="round"/>
<g id="SVGRepo_iconCarrier">
<path d="M744 856v76c0 32.8 27.2 60 60 60s60-27.2 60-60V856c-17.6 10.4-38.4 16-60 16s-42.4-5.6-60-16z" fill="#938993"/>
<path d="M804 1000c-37.6 0-68-30.4-68-68v-90.4l12 7.2c34.4 20 77.6 20 112 0l12-7.2v90.4c0 37.6-30.4 68-68 68zM752 868.8v63.2c0 28.8 23.2 52 52 52s52-23.2 52-52v-63.2c-32.8 14.4-71.2 14.4-104 0z" fill="#6A576D"/>
<path d="M444 364v568c0 32.8 27.2 60 60 60s60-27.2 60-60v-568c-17.6 10.4-38.4 16-60 16s-42.4-5.6-60-16z" fill="#938993"/>
<path d="M504 1000c-37.6 0-68-30.4-68-68V349.6l12 7.2c34.4 20 77.6 20 112 0l12-7.2v582.4c0 37.6-30.4 68-68 68z m-52-623.2v555.2c0 28.8 23.2 52 52 52s52-23.2 52-52V376.8c-32.8 14.4-71.2 14.4-104 0z" fill="#6A576D"/>
<path d="M144 652v280c0 32.8 27.2 60 60 60s60-27.2 60-60v-280c-17.6 10.4-38.4 16-60 16s-42.4-5.6-60-16z" fill="#938993"/>
<path d="M204 1000c-37.6 0-68-30.4-68-68V637.6l12 7.2c34.4 20 77.6 20 112 0l12-7.2v294.4c0 37.6-30.4 68-68 68zM152 664.8v267.2c0 28.8 23.2 52 52 52s52-23.2 52-52V664.8c-32.8 14.4-71.2 14.4-104 0z" fill="#6A576D"/>
<path d="M564 156v-64C564 59.2 536.8 32 504 32s-60 27.2-60 60v64c17.6-10.4 38.4-16 60-16s42.4 5.6 60 16zM864 648V92c0-32.8-27.2-60-60-60S744 59.2 744 92V648c17.6-10.4 38.4-16 60-16s42.4 5.6 60 16z" fill="#FFFFFF"/>
<path d="M300 476c15.2 20 24 44.8 24 72 0 66.4-53.6 120-120 120-27.2 0-52-8.8-72-24 21.6 28.8 56.8 48 96 48 66.4 0 120-53.6 120-120 0-39.2-19.2-74.4-48-96z" fill="#0E1015"/>
<path d="M264 444v-352C264 59.2 236.8 32 204 32S144 59.2 144 92v352c17.6-10.4 38.4-16 60-16s42.4 5.6 60 16z" fill="#FFFFFF"/>
<path d="M804 1000c-37.6 0-68-30.4-68-68V856c0-3.2 1.6-5.6 4-7.2s5.6-1.6 8 0c34.4 20 77.6 20 112 0 2.4-1.6 5.6-1.6 8 0 2.4 1.6 4 4 4 7.2v76c0 37.6-30.4 68-68 68zM752 868.8v63.2c0 28.8 23.2 52 52 52s52-23.2 52-52v-63.2c-32.8 14.4-71.2 14.4-104 0zM504 1000c-37.6 0-68-30.4-68-68v-568c0-3.2 1.6-5.6 4-7.2 2.4-1.6 5.6-1.6 8 0 34.4 20 77.6 20 112 0 2.4-1.6 5.6-1.6 8 0 2.4 1.6 4 4 4 7.2v568c0 37.6-30.4 68-68 68z m-52-623.2v555.2c0 28.8 23.2 52 52 52s52-23.2 52-52V376.8c-32.8 14.4-71.2 14.4-104 0zM204 1000c-37.6 0-68-30.4-68-68v-280c0-3.2 1.6-5.6 4-7.2 2.4-1.6 5.6-1.6 8 0 34.4 20 77.6 20 112 0 2.4-1.6 5.6-1.6 8 0 2.4 1.6 4 4 4 7.2v280c0 37.6-30.4 68-68 68zM152 664.8v267.2c0 28.8 23.2 52 52 52s52-23.2 52-52V664.8c-32.8 14.4-71.2 14.4-104 0zM564 164c-1.6 0-2.4 0-4-0.8-34.4-20-77.6-20-112 0-2.4 1.6-5.6 1.6-8 0-2.4-1.6-4-4-4-7.2v-64C436 54.4 466.4 24 504 24s68 30.4 68 68v64c0 3.2-1.6 5.6-4 7.2-1.6 0.8-2.4 0.8-4 0.8z m-60-32c17.6 0 36 4 52 11.2v-51.2C556 63.2 532.8 40 504 40s-52 23.2-52 52v51.2c16-7.2 34.4-11.2 52-11.2zM864 656c-1.6 0-2.4 0-4-0.8-34.4-20-77.6-20-112 0-2.4 1.6-5.6 1.6-8 0-2.4-1.6-4-4-4-7.2V92c0-37.6 30.4-68 68-68s68 30.4 68 68V648c0 3.2-1.6 5.6-4 7.2-1.6 0.8-2.4 0.8-4 0.8z m-60-32c17.6 0 36 4 52 11.2V92c0-28.8-23.2-52-52-52S752 63.2 752 92v543.2c16-7.2 34.4-11.2 52-11.2zM264 452c-1.6 0-2.4 0-4-0.8-34.4-20-77.6-20-112 0-2.4 1.6-5.6 1.6-8 0-2.4-1.6-4-4-4-7.2v-352C136 54.4 166.4 24 204 24S272 54.4 272 92v352c0 3.2-1.6 5.6-4 7.2-1.6 0.8-2.4 0.8-4 0.8z m-60-32c17.6 0 36 4 52 11.2V92C256 63.2 232.8 40 204 40S152 63.2 152 92v339.2c16-7.2 34.4-11.2 52-11.2z" fill="#6A576D"/>
<path d="M600 188c15.2 20 24 44.8 24 72 0 66.4-53.6 120-120 120-27.2 0-52-8.8-72-24 21.6 28.8 56.8 48 96 48 66.4 0 120-53.6 120-120 0-39.2-19.2-74.4-48-96zM900 680c15.2 20 24 44.8 24 72 0 66.4-53.6 120-120 120-27.2 0-52-8.8-72-24 21.6 28.8 56.8 48 96 48 66.4 0 120-53.6 120-120 0-39.2-19.2-74.4-48-96zM168 932v-840c0-28.8 20.8-53.6 48-58.4-4-0.8-8-1.6-12-1.6-32.8 0-60 27.2-60 60v840c0 32.8 27.2 60 60 60 4 0 8-0.8 12-1.6-27.2-4.8-48-29.6-48-58.4z" fill="#0E1015"/>
<path d="M768 932v-840c0-28.8 20.8-53.6 48-58.4-4-0.8-8-1.6-12-1.6-32.8 0-60 27.2-60 60v840c0 32.8 27.2 60 60 60 4 0 8-0.8 12-1.6-27.2-4.8-48-29.6-48-58.4zM468 932v-840c0-28.8 20.8-53.6 48-58.4-4-0.8-8-1.6-12-1.6-32.8 0-60 27.2-60 60v840c0 32.8 27.2 60 60 60 4 0 8-0.8 12-1.6-27.2-4.8-48-29.6-48-58.4z" fill="#0E1015"/>
<path d="M504 260m-120 0a120 120 0 1 0 240 0 120 120 0 1 0-240 0Z" fill="#F1ED7B"/>
<path d="M204 548m-120 0a120 120 0 1 0 240 0 120 120 0 1 0-240 0Z" fill="#EC7BB0"/>
<path d="M804 752m-120 0a120 120 0 1 0 240 0 120 120 0 1 0-240 0Z" fill="#99D9E6"/>
<path d="M504 388c-70.4 0-128-57.6-128-128s57.6-128 128-128 128 57.6 128 128-57.6 128-128 128z m0-240c-61.6 0-112 50.4-112 112s50.4 112 112 112 112-50.4 112-112-50.4-112-112-112z" fill="#6A576D"/>
<path d="M204 676c-70.4 0-128-57.6-128-128s57.6-128 128-128 128 57.6 128 128-57.6 128-128 128z m0-240c-61.6 0-112 50.4-112 112s50.4 112 112 112 112-50.4 112-112-50.4-112-112-112z" fill="#6A576D"/>
<path d="M804 880c-70.4 0-128-57.6-128-128s57.6-128 128-128 128 57.6 128 128-57.6 128-128 128z m0-240c-61.6 0-112 50.4-112 112s50.4 112 112 112 112-50.4 112-112-50.4-112-112-112z" fill="#6A576D"/>
</g>
</svg>